<svg xmlns="http://www.w3.org/2000/svg" viewBox="0 0 400 200">
  <rect width="400" height="200" fill="#f0ece4"/>
  <g transform="translate(120,20)">
    <g stroke="#e2ded6" stroke-width="1">
      <line x1="0" y1="40" x2="40" y2="40"/><line x1="40" y1="40" x2="80" y2="40"/>
      <line x1="80" y1="40" x2="120" y2="40"/><line x1="120" y1="40" x2="160" y2="40"/>
      <line x1="0" y1="80" x2="40" y2="80"/><line x1="40" y1="80" x2="80" y2="80"/>
      <line x1="80" y1="80" x2="120" y2="80"/><line x1="120" y1="80" x2="160" y2="80"/>
      <line x1="0" y1="120" x2="40" y2="120"/><line x1="40" y1="120" x2="80" y2="120"/>
      <line x1="80" y1="120" x2="120" y2="120"/><line x1="120" y1="120" x2="160" y2="120"/>
      <line x1="0" y1="40" x2="0" y2="80"/><line x1="0" y1="80" x2="0" y2="120"/>
      <line x1="40" y1="40" x2="40" y2="80"/><line x1="40" y1="80" x2="40" y2="120"/>
      <line x1="80" y1="40" x2="80" y2="80"/><line x1="80" y1="80" x2="80" y2="120"/>
      <line x1="120" y1="40" x2="120" y2="80"/><line x1="120" y1="80" x2="120" y2="120"/>
      <line x1="160" y1="40" x2="160" y2="80"/><line x1="160" y1="80" x2="160" y2="120"/>
    </g>
    <g fill="#5c5850">
      <circle cx="0" cy="40" r="5"/><circle cx="40" cy="40" r="5"/><circle cx="80" cy="40" r="5"/><circle cx="120" cy="40" r="5"/><circle cx="160" cy="40" r="5"/>
      <circle cx="0" cy="80" r="5"/><circle cx="40" cy="80" r="5"/><circle cx="120" cy="80" r="5"/><circle cx="160" cy="80" r="5"/>
      <circle cx="0" cy="120" r="5"/><circle cx="40" cy="120" r="5"/><circle cx="80" cy="120" r="5"/><circle cx="120" cy="120" r="5"/><circle cx="160" cy="120" r="5"/>
    </g>
    <circle cx="80" cy="80" r="7" fill="#1a7a6d"/>
    <path d="M80,60 L80,75" stroke="#1a7a6d" stroke-width="1.5" marker-end="url(#arr)"/>
  </g>
  <text x="200" y="185" font-family="Georgia,serif" font-size="11" fill="#8a857c" text-anchor="middle">Atomic manipulation</text>
</svg>
