<svg xmlns="http://www.w3.org/2000/svg" viewBox="0 0 400 200">
  <rect width="400" height="200" fill="#f0ece4"/>
  <path d="M0,120 Q50,80 100,120 Q150,160 200,120 Q250,80 300,120 Q350,160 400,120" fill="none" stroke="#1a7a6d" stroke-width="2" opacity="0.3"/>
  <path d="M0,100 Q50,60 100,100 Q150,140 200,100 Q250,60 300,100 Q350,140 400,100" fill="none" stroke="#1a7a6d" stroke-width="2.5" opacity="0.6"/>
  <path d="M0,80 Q50,40 100,80 Q150,120 200,80 Q250,40 300,80 Q350,120 400,80" fill="none" stroke="#1a7a6d" stroke-width="3" opacity="1"/>
  <circle cx="80" cy="65" r="6" fill="#2563eb" opacity="0.4"/>
  <circle cx="160" cy="105" r="5" fill="#2563eb" opacity="0.3"/>
  <circle cx="240" cy="55" r="7" fill="#2563eb" opacity="0.4"/>
  <circle cx="320" cy="95" r="5" fill="#2563eb" opacity="0.3"/>
  <text x="200" y="190" font-family="Georgia,serif" font-size="11" fill="#8a857c" text-anchor="middle">Superfluid ⁴He excitation spectrum</text>
</svg>
